<?xml version="1.0" encoding="UTF-8"?>
<svg version="1.1" xmlns="http://www.w3.org/2000/svg" width="1500" height="1500">
<path d="M0 0 C1.6550394 0.00222571 3.31007888 0.00440205 4.96511841 0.00653076 C29.34949496 0.04993595 53.57243785 0.42151748 77.8125 3.3125 C78.67740051 3.4143158 79.54230103 3.51613159 80.43341064 3.62103271 C105.06511355 6.54215794 129.52766578 10.24671954 153.8125 15.3125 C155.08270996 15.57643555 156.35291992 15.84037109 157.66162109 16.11230469 C211.43072291 27.43567573 263.99336948 45.15354505 313.8125 68.3125 C314.83537109 68.78478027 315.85824219 69.25706055 316.91210938 69.74365234 C386.35574463 101.93803951 451.54050344 145.41496221 507.2578125 197.9765625 C510.234342 200.78255344 513.26528785 203.52075781 516.3125 206.25 C522.59175479 211.98808782 528.60429285 217.99360196 534.625 224 C535.37547607 224.74659378 535.37547607 224.74659378 536.14111328 225.50827026 C541.3597814 230.70563638 546.48784711 235.93898377 551.28100586 241.53588867 C553.66986187 244.30708351 556.18490761 246.95694348 558.6875 249.625 C563.14951824 254.42111394 567.38035648 259.34091295 571.48046875 264.453125 C573.6393587 267.10020615 575.85568553 269.67904512 578.1015625 272.25170898 C584.57628221 279.68207242 590.51954789 287.41778478 596.35644531 295.35498047 C597.70171588 297.16356185 599.07281084 298.94686856 600.4609375 300.72265625 C607.74833233 310.10653372 614.35071318 319.93149156 620.9375 329.8125 C621.40081726 330.50656952 621.86413452 331.20063904 622.3414917 331.91574097 C653.47281571 378.61961779 679.63188195 427.93526043 699.8125 480.3125 C700.18021515 481.26609406 700.18021515 481.26609406 700.55535889 482.23895264 C725.81763214 547.93090358 740.48738316 616.34586108 747.05078125 686.30859375 C747.11403091 686.96871964 747.17728058 687.62884552 747.2424469 688.30897522 C748.47652413 701.9264741 748.97754916 715.5243707 749.015625 729.19140625 C749.02264857 730.76226834 749.02973538 732.33313015 749.03688049 733.9039917 C749.05627034 738.89433202 749.06131451 743.88462581 749.0625 748.875 C749.06294186 749.72554836 749.06338371 750.57609673 749.06383896 751.45241928 C749.07064053 776.42046064 748.90802473 801.25485136 746.06573486 826.09173584 C745.79988636 828.42311633 745.54564464 830.75558897 745.29248047 833.08837891 C740.02887018 880.99131288 730.21219507 928.31661222 715.8125 974.3125 C715.60709595 974.96889465 715.40169189 975.62528931 715.19006348 976.30157471 C699.9442374 1024.82742271 679.86290934 1072.02802252 654.8125 1116.3125 C654.35665527 1117.12090332 653.90081055 1117.92930664 653.43115234 1118.76220703 C636.80048015 1148.1516389 618.26879371 1176.44017934 597.8125 1203.3125 C597.23161621 1204.07739746 596.65073242 1204.84229492 596.05224609 1205.63037109 C589.136931 1214.70684002 582.02600213 1223.55627595 574.53125 1232.16015625 C572.1111116 1234.94415573 569.79832693 1237.80172757 567.5 1240.6875 C563.08104701 1246.13673711 558.30928377 1251.22137297 553.47924805 1256.30419922 C550.12422974 1259.83489882 546.83093192 1263.4040195 543.59765625 1267.046875 C538.68442896 1272.52725484 533.53257928 1277.74398154 528.3190918 1282.9362793 C526.74475845 1284.5052236 525.17588411 1286.07948558 523.60742188 1287.65429688 C518.74098728 1292.52394035 513.83384936 1297.2948933 508.59838867 1301.77172852 C505.64662936 1304.31835231 502.83538497 1307.01297923 500 1309.6875 C495.00704716 1314.35933901 489.90681243 1318.81050315 484.56640625 1323.0859375 C482.10105088 1325.07920354 479.68739957 1327.12191129 477.28491211 1329.19018555 C469.06287106 1336.25362628 460.48753173 1342.81779414 451.8125 1349.3125 C451.03535645 1349.89467285 450.25821289 1350.4768457 449.45751953 1351.07666016 C438.74850817 1359.07834947 427.92940885 1366.88659086 416.8125 1374.3125 C416.07515625 1374.80540527 415.3378125 1375.29831055 414.578125 1375.80615234 C393.82939679 1389.61397839 372.44342995 1402.24733836 350.42529297 1413.91796875 C348.16825388 1415.12262277 345.9266366 1416.34929149 343.69140625 1417.59375 C311.22138316 1435.52353432 275.79618923 1449.2935002 240.8125 1461.3125 C239.78850098 1461.66795898 238.76450195 1462.02341797 237.70947266 1462.38964844 C208.55193952 1472.48975343 178.97210444 1479.94180114 148.8125 1486.3125 C147.58740723 1486.57160156 146.36231445 1486.83070312 145.10009766 1487.09765625 C122.88649006 1491.70015005 100.32843474 1494.63703213 77.8125 1497.3125 C77.01831665 1497.40764893 76.2241333 1497.50279785 75.40588379 1497.60083008 C51.0626751 1500.47057385 26.65541715 1500.59040659 2.17641068 1500.62168121 C0.53414403 1500.62387106 -1.10812176 1500.62687988 -2.75038528 1500.63076019 C-31.43063921 1500.69811898 -59.80968267 1499.4966814 -88.3125 1496.0625 C-89.21094635 1495.95578979 -90.1093927 1495.84907959 -91.0350647 1495.73913574 C-175.37961601 1485.66160015 -258.43566643 1461.97303026 -336.15771484 1422.33691406 C-338.36310931 1421.22387158 -340.58045217 1420.13761857 -342.80078125 1419.0546875 C-355.89220737 1412.64624224 -368.59337965 1405.64743484 -381.1875 1398.3125 C-381.92548828 1397.88453125 -382.66347656 1397.4565625 -383.42382812 1397.015625 C-406.87955963 1383.32014575 -429.60959018 1367.78834329 -451.1875 1351.3125 C-452.69756819 1350.17141369 -454.20799079 1349.03079627 -455.71875 1347.890625 C-463.68007825 1341.86273755 -471.53147054 1335.72610363 -479.1875 1329.3125 C-479.69732422 1328.88759277 -480.20714844 1328.46268555 -480.73242188 1328.02490234 C-487.53399143 1322.35216471 -494.18979374 1316.56021452 -500.71484375 1310.5703125 C-502.80617939 1308.66068849 -504.92008864 1306.78918748 -507.0625 1304.9375 C-517.26739425 1296.01329965 -526.96895568 1286.63408905 -536.5625 1277.0625 C-537.08432861 1276.54325958 -537.60615723 1276.02401917 -538.14379883 1275.48904419 C-543.49148636 1270.16226248 -548.76129607 1264.81323829 -553.67138672 1259.07373047 C-556.05360337 1256.30636961 -558.56487126 1253.66276469 -561.0625 1251 C-565.52899123 1246.19907815 -569.76388116 1241.27435253 -573.8671875 1236.15625 C-575.51116338 1234.14141087 -577.16841071 1232.17116247 -578.8828125 1230.21875 C-586.87598013 1221.11233537 -594.15324794 1211.56254574 -601.33789062 1201.80908203 C-603.04620768 1199.5032148 -604.77565378 1197.21561694 -606.515625 1194.93359375 C-622.51480618 1173.81391318 -636.9638473 1151.26148458 -650.1875 1128.3125 C-650.74074951 1127.35923828 -650.74074951 1127.35923828 -651.30517578 1126.38671875 C-653.99918091 1121.73132108 -656.60745399 1117.0318691 -659.1875 1112.3125 C-659.73809082 1111.30687012 -660.28868164 1110.30124023 -660.85595703 1109.26513672 C-679.82891353 1074.50409617 -696.08531516 1038.70431939 -709.1875 1001.3125 C-709.40408264 1000.69797974 -709.62066528 1000.08345947 -709.84381104 999.45031738 C-729.07542637 944.85251526 -741.9108258 887.95401142 -747.96746826 830.37774658 C-748.18520738 828.33401881 -748.41428238 826.29180835 -748.64501953 824.24951172 C-754.0493236 775.42333419 -754.02607374 723.33983313 -748.44073486 674.53326416 C-748.17488636 672.20188367 -747.92064464 669.86941103 -747.66748047 667.53662109 C-738.8408716 587.20763806 -717.29981929 508.29363174 -680.1875 429.3125 C-679.21089571 427.22527997 -678.23433415 425.13803995 -677.2578125 423.05078125 C-651.07743392 367.44042889 -616.63002916 314.60483628 -576.59667969 267.95996094 C-575.16347461 266.2844121 -573.74100262 264.60023026 -572.3203125 262.9140625 C-565.44029211 254.77540376 -558.27701451 246.94659288 -550.9609375 239.19921875 C-549.21348876 237.34014884 -547.47958377 235.46944016 -545.75 233.59375 C-539.55378804 226.88206818 -533.25947694 220.28433675 -526.8125 213.8125 C-526.17070801 213.16611572 -525.52891602 212.51973145 -524.86767578 211.85375977 C-521.08980827 208.08808521 -517.1928228 204.52208573 -513.15625 201.03613281 C-509.9810849 198.25628837 -506.93758026 195.34000657 -503.875 192.4375 C-498.73380279 187.60269802 -493.5012549 182.98510007 -487.984375 178.578125 C-484.71918166 175.93313598 -481.55000925 173.18934918 -478.375 170.4375 C-471.48284436 164.49889348 -464.41653539 158.83465388 -457.1875 153.3125 C-456.56504395 152.83216309 -455.94258789 152.35182617 -455.30126953 151.85693359 C-383.64035169 96.7813719 -301.5484333 56.47765583 -97.1875 5.3125 C-95.55458008 5.08071045 -95.55458008 5.08071045 -93.88867188 4.84423828 C-81.37145613 3.08684649 -68.83897914 1.97906425 -56.22265625 1.25 C-55.47286688 1.20653254 -54.72307751 1.16306507 -53.95056725 1.11828041 C-35.9687101 0.1003261 -18.0062292 -0.0430896 0 0 Z " fill="#FEFEFE" transform="translate(751.1875,-0.3125)"/>
<path d="M0 0 C1.36600781 -0.00322963 2.7320153 -0.00659484 4.09802246 -0.01008606 C6.94523924 -0.01602311 9.79242592 -0.01793178 12.63964844 -0.01733398 C15.51145774 -0.01725305 18.38310643 -0.02415262 21.25488281 -0.0378418 C37.03047289 -0.11187776 52.64068995 0.03321849 68.32983398 1.91671753 C71.51694166 2.29109627 74.71116037 2.58162208 77.90625 2.87890625 C91.07657591 4.18881869 103.98320106 5.95093825 116.93896484 8.65185547 C120.4615672 9.37051802 123.99627935 10.01776954 127.53173828 10.66967773 C143.61543185 13.65230708 159.22762103 17.51184308 174.85180664 22.359375 C176.71877312 22.93623786 178.58801731 23.50575041 180.45874023 24.0703125 C188.71963309 26.57403233 196.89326892 29.29064142 205.03125 32.16796875 C205.69461365 32.40240692 206.35797729 32.63684509 207.04144287 32.87838745 C221.46544947 38.00168372 235.51722297 43.86553312 249.46875 50.16796875 C250.90250977 50.81548096 250.90250977 50.81548096 252.36523438 51.47607422 C266.0880536 57.72947992 279.32127189 64.79153639 292.46875 72.16796875 C293.26990234 72.61221191 294.07105469 73.05645508 294.89648438 73.51416016 C320.54479936 87.75786724 344.58238465 104.85312613 367.46875 123.16796875 C368.37109375 123.87566406 369.2734375 124.58335937 370.203125 125.3125 C375.35575954 129.36899955 380.27568243 133.61662042 385.12109375 138.03515625 C387.10852613 139.84071046 389.1202848 141.6053302 391.15625 143.35546875 C400.74739408 151.73570687 409.94715391 160.55628269 418.96875 169.54296875 C419.61457031 170.18419678 420.26039063 170.8254248 420.92578125 171.48608398 C424.73644199 175.30907217 428.35143362 179.25207379 431.87890625 183.33740234 C433.93748427 185.70767538 436.0778584 187.99704706 438.21875 190.29296875 C442.96549642 195.49861512 447.31721218 200.94091461 451.625 206.51171875 C453.99050615 209.56988692 456.41210249 212.57764303 458.85131836 215.57714844 C483.66736463 246.18617656 503.82446363 280.01658245 521.46875 315.16796875 C521.96117187 316.1434668 522.45359375 317.11896484 522.9609375 318.12402344 C550.2332019 372.46137344 565.98693396 431.17082828 574.46875 491.16796875 C574.57815918 491.93834473 574.68756836 492.7087207 574.80029297 493.50244141 C577.94924562 516.24605726 578.79074372 539.1933576 578.67456055 562.12670898 C578.65606824 565.89248337 578.65405368 569.65801254 578.65429688 573.42382812 C578.62996003 590.94491991 578.09052181 608.15283341 575.78125 625.54296875 C575.69638336 626.18805389 575.61151672 626.83313904 575.52407837 627.49777222 C570.91709167 662.31108935 564.46793801 696.75651241 553.46875 730.16796875 C553.08235352 731.35551758 552.69595703 732.54306641 552.29785156 733.76660156 C527.11388553 810.92301998 486.29136946 881.20285902 431.46875 941.16796875 C430.64761719 942.08191406 429.82648437 942.99585938 428.98046875 943.9375 C422.43394138 951.17819422 415.61070975 958.13121831 408.71875 965.04296875 C407.83155273 965.9347583 406.94435547 966.82654785 406.03027344 967.74536133 C401.00354226 972.76033022 395.87603812 977.56728467 390.46875 982.16796875 C389.37439468 983.1177926 388.28061916 984.068285 387.1875 985.01953125 C357.26353523 1010.86358401 325.26596238 1034.28571216 290.46875 1053.16796875 C288.33584007 1054.3409687 286.20303295 1055.51415558 284.0703125 1056.6875 C253.82252717 1073.24025682 222.57497015 1086.02631769 190.01051331 1097.23457336 C186.35354824 1098.49628614 182.73475037 1099.82884421 179.125 1101.21875 C172.0512312 1103.8085383 164.72980495 1105.52125623 157.42285156 1107.31494141 C154.94409499 1107.92402703 152.46806463 1108.54338672 149.9921875 1109.1640625 C148.41160699 1109.55658865 146.83088292 1109.94853733 145.25 1110.33984375 C144.5125354 1110.52415955 143.7750708 1110.70847534 143.01525879 1110.89837646 C140.08823178 1111.61313563 137.49437754 1112.16796875 134.46875 1112.16796875 C134.46875 944.85796875 134.46875 777.54796875 134.46875 605.16796875 C149.97875 605.16796875 165.48875 605.16796875 181.46875 605.16796875 C181.46875 752.01796875 181.46875 898.86796875 181.46875 1050.16796875 C186.08875 1048.18796875 190.70875 1046.20796875 195.46875 1044.16796875 C198.56777974 1042.98701357 201.66687196 1041.80608556 204.77368164 1040.64575195 C254.9504642 1021.73403499 304.0290238 993.35940645 344.3515625 957.88671875 C347.11570421 955.45521963 349.96205446 953.14714354 352.84375 950.85546875 C364.05489582 941.71985576 374.29407157 931.42578956 384.53125 921.23046875 C385.70880859 920.05991943 385.70880859 920.05991943 386.91015625 918.86572266 C391.63541291 914.12731781 396.11451799 909.24736363 400.46875 904.16796875 C401.51417 902.97658627 402.56101643 901.78645375 403.609375 900.59765625 C410.3530153 892.90517281 416.87154474 885.0879481 423.09179688 876.96582031 C424.01961123 875.75439745 424.95067373 874.54545624 425.88476562 873.33886719 C439.4206689 855.83743879 451.38820351 837.30673628 462.46875 818.16796875 C462.89607422 817.43046387 463.32339844 816.69295898 463.76367188 815.93310547 C484.24652614 780.34374674 500.87955182 741.89629053 511.46875 702.16796875 C511.91299316 700.52368896 511.91299316 700.52368896 512.36621094 698.84619141 C535.09997779 614.33202694 536.48998806 526.70897312 507.46875 409.16796875 C507.11699707 408.03858887 506.76524414 406.90920898 506.40283203 405.74560547 C501.29576287 389.49709193 495.34255732 373.74825452 488.46875 358.16796875 C488.03836426 357.18763672 487.60797852 356.20730469 487.16455078 355.19726562 C468.17612912 312.19345416 443.89094029 270.66254973 412.96875 235.06640625 C410.63078709 232.3558305 408.38811138 229.59100084 406.15625 226.79296875 C396.40616504 214.8818702 385.45177762 204.0564831 374.59375 193.16796875 C374.05395508 192.625495 373.51416016 192.08302124 372.95800781 191.52410889 C366.97638396 185.51998577 360.94814108 179.64035293 354.46875 174.16796875 C353.45896627 173.2911346 352.449812 172.41357481 351.44140625 171.53515625 C332.00291432 154.88850141 311.18813805 139.69729783 289.46875 126.16796875 C288.70369141 125.69004883 287.93863281 125.21212891 287.15039062 124.71972656 C273.93669821 116.51122067 260.36374192 109.15278817 246.46875 102.16796875 C245.35322754 101.60287598 244.23770508 101.0377832 243.08837891 100.45556641 C225.27030055 91.47084816 207.29799582 83.8213628 188.46875 77.16796875 C187.50501465 76.82685059 186.5412793 76.48573242 185.54833984 76.13427734 C179.55561276 74.03429859 173.52865842 72.06454642 167.46875 70.16796875 C166.57542969 69.88501953 165.68210937 69.60207031 164.76171875 69.31054688 C152.31483474 65.40239938 139.76982461 62.20033817 127.03125 59.41796875 C126.37909515 59.27512451 125.72694031 59.13228027 125.05502319 58.98510742 C108.81195377 55.45069428 92.62239788 52.78887906 76.09375 51.04296875 C74.52989382 50.87289248 72.96609147 50.70232055 71.40234375 50.53125 C67.09239537 50.06344371 62.78210496 49.60329694 58.46875 49.16796875 C57.64325653 49.07914429 56.81776306 48.99031982 55.96725464 48.89880371 C48.70739637 48.1643158 41.50481464 47.99218228 34.2109375 47.96484375 C32.33671867 47.95432228 32.33671867 47.95432228 30.42463684 47.94358826 C26.3976348 47.92612589 22.37078185 47.91915247 18.34375 47.91796875 C17.65806065 47.91752689 16.97237129 47.91708504 16.26590347 47.91662979 C-4.81235739 47.90950065 -25.61553903 48.26586864 -46.53125 51.16796875 C-47.52079681 51.3023233 -47.52079681 51.3023233 -48.53033447 51.43939209 C-65.47446112 53.74269598 -82.26982573 56.64803851 -98.92236328 60.56054688 C-101.47385297 61.15460511 -104.03031965 61.71904662 -106.58984375 62.27734375 C-139.64904196 69.62205584 -172.02266751 81.51604074 -202.53125 96.16796875 C-203.56217773 96.65958496 -204.59310547 97.15120117 -205.65527344 97.65771484 C-247.27847901 117.62454396 -285.54976603 143.06211786 -320.53125 173.16796875 C-321.24667969 173.7815625 -321.96210938 174.39515625 -322.69921875 175.02734375 C-324.65866785 176.72418627 -326.59722011 178.442219 -328.53125 180.16796875 C-329.3046875 180.84859375 -330.078125 181.52921875 -330.875 182.23046875 C-338.27094943 188.86131997 -345.31340183 195.84190541 -352.34375 202.85546875 C-352.84343292 203.35256348 -353.34311584 203.8496582 -353.85794067 204.36181641 C-359.63649962 210.11679133 -365.24845166 215.95145859 -370.53125 222.16796875 C-371.48029734 223.25129263 -372.43076545 224.33337388 -373.3828125 225.4140625 C-381.18355766 234.35702485 -388.4524202 243.64598436 -395.53125 253.16796875 C-396.0689502 253.89000488 -396.60665039 254.61204102 -397.16064453 255.35595703 C-416.03728597 280.81417468 -432.32734065 307.84773309 -446.53125 336.16796875 C-446.9329541 336.96734863 -447.3346582 337.76672852 -447.74853516 338.59033203 C-469.3611562 381.97212058 -483.98518875 429.22356443 -491.96875 476.98046875 C-492.08281189 477.65859619 -492.19687378 478.33672363 -492.31439209 479.03540039 C-493.00926397 483.23833961 -493.62770216 487.44793469 -494.19497681 491.66995239 C-494.43184275 493.42951874 -494.67580678 495.18813681 -494.92489624 496.9460144 C-497.5620819 515.88608397 -498.03329535 534.61553217 -497.97729492 553.69799805 C-497.96815283 556.95379484 -497.97494488 560.20887093 -497.99780273 563.46459961 C-498.16170254 586.97352652 -496.67827916 609.87124066 -493.53125 633.16796875 C-493.33428024 634.66253098 -493.33428024 634.66253098 -493.1333313 636.18728638 C-492.46288141 641.2201004 -491.69739765 646.22544752 -490.84375 651.23046875 C-490.72219543 651.9488089 -490.60064087 652.66714905 -490.47540283 653.40725708 C-483.74649681 692.75082361 -471.58297198 731.65882749 -455.53125 768.16796875 C-455.05187988 769.26141602 -454.57250977 770.35486328 -454.07861328 771.48144531 C-447.30521823 786.80588872 -439.80660389 801.60404919 -431.53125 816.16796875 C-431.13292969 816.88114258 -430.73460937 817.59431641 -430.32421875 818.32910156 C-424.82388197 828.17205818 -418.7066588 837.5940861 -412.46875 846.98046875 C-412.09329041 847.5468808 -411.71783081 848.11329285 -411.33099365 848.6968689 C-405.99096211 856.73493714 -400.401019 864.51030194 -394.53125 872.16796875 C-393.75817505 873.17863403 -393.75817505 873.17863403 -392.96948242 874.2097168 C-384.36151015 885.38671677 -375.33673898 896.19971219 -365.83520508 906.62866211 C-364.38397724 908.22813448 -362.94002317 909.83426634 -361.5065918 911.44970703 C-355.86579605 917.79931113 -349.9865686 923.86379563 -343.96875 929.85546875 C-343.07478516 930.75330078 -342.18082031 931.65113281 -341.25976562 932.57617188 C-336.17791157 937.65059088 -330.98871331 942.50263625 -325.53125 947.16796875 C-324.37446297 948.18932705 -323.21947584 949.21272797 -322.06640625 950.23828125 C-313.58797815 957.72060325 -304.83557444 964.72849124 -295.77441406 971.49121094 C-293.4751325 973.2099164 -291.18677514 974.94254015 -288.8984375 976.67578125 C-278.1278805 984.78042495 -267.04129371 992.15918797 -255.53125 999.16796875 C-254.52602295 999.78430176 -254.52602295 999.78430176 -253.50048828 1000.41308594 C-239.57051298 1008.94480017 -225.39925929 1016.96999472 -210.70214844 1024.10693359 C-208.44170798 1025.21173276 -206.19378494 1026.33981576 -203.9453125 1027.46875 C-186.00622153 1036.35765022 -167.25602885 1043.14617668 -148.53125 1050.16796875 C-148.53125 903.31796875 -148.53125 756.46796875 -148.53125 605.16796875 C-133.02125 605.16796875 -117.51125 605.16796875 -101.53125 605.16796875 C-101.53125 772.47796875 -101.53125 939.78796875 -101.53125 1112.16796875 C-197.55814609 1096.16348607 -290.75641154 1044.09720096 -361.8359375 978.6171875 C-363.28348181 977.30181028 -364.73688011 975.99212548 -366.22338867 974.72094727 C-371.93963631 969.82789788 -377.27121498 964.58070014 -382.5769043 959.25268555 C-384.0911758 957.73305207 -385.6107243 956.21884358 -387.13085938 954.70507812 C-392.47531194 949.36427943 -397.62418219 943.91677516 -402.53125 938.16796875 C-403.98570517 936.56028502 -405.44345895 934.9555716 -406.90625 933.35546875 C-415.60180295 923.70516758 -423.5881911 913.44045671 -431.53125 903.16796875 C-432.0149707 902.5426123 -432.49869141 901.91725586 -432.99707031 901.27294922 C-475.7647354 845.73144357 -506.34824557 781.56771233 -525.61474609 714.35400391 C-526.3882506 711.66507642 -527.18151351 708.98375442 -527.98828125 706.3046875 C-533.76593957 686.83257953 -537.28798787 666.7423967 -540.39016724 646.69488525 C-540.64303957 645.06099255 -540.89922302 643.42760736 -541.15939331 641.79486084 C-545.62720004 613.52557297 -545.97284407 585.03042603 -545.96875 556.48046875 C-545.96951412 555.61444534 -545.97027824 554.74842194 -545.97106552 553.8561554 C-545.99011358 527.68992815 -545.39169189 501.97092675 -540.86975098 476.128479 C-540.33585584 473.03629623 -539.85782128 469.93523468 -539.3671875 466.8359375 C-534.76990644 439.11802394 -527.41632582 411.79355458 -518.53125 385.16796875 C-518.14743164 384.01522461 -517.76361328 382.86248047 -517.36816406 381.67480469 C-509.50569255 358.32306789 -500.17408864 335.26818904 -488.70849609 313.43261719 C-487.25689388 310.64019452 -485.84271338 307.8297024 -484.42578125 305.01953125 C-466.10499152 268.88902451 -443.63781149 235.1605289 -417.53125 204.16796875 C-416.66515387 203.12777957 -415.79928127 202.08740426 -414.93359375 201.046875 C-409.49560166 194.53807021 -403.90024952 188.20645935 -398.1328125 181.98828125 C-395.81278842 179.47318007 -393.54330472 176.92251962 -391.28125 174.35546875 C-383.26748234 165.43203017 -374.77138 156.68686063 -365.59375 148.953125 C-363.35960086 147.01940122 -361.21343411 145.00171962 -359.06347656 142.9753418 C-352.4432418 136.75399861 -345.52588337 131.0989908 -338.32714844 125.56542969 C-335.89805958 123.67525777 -333.51390723 121.7321155 -331.12646484 119.78979492 C-309.9954472 102.64845209 -287.20647752 87.55664129 -263.53125 74.16796875 C-262.80631348 73.75740234 -262.08137695 73.34683594 -261.33447266 72.92382812 C-256.80803735 70.36869317 -252.2629006 67.84985982 -247.70166016 65.35742188 C-245.67455042 64.24650189 -243.65550305 63.12204329 -241.63671875 61.99609375 C-208.47007677 43.7293777 -171.1711682 28.71095573 -134.3359375 20.0859375 C-131.00427577 19.28209714 -127.73367057 18.37981086 -124.44555664 17.42041016 C-84.65240446 5.8842115 -41.42732215 0.03638771 0 0 Z " fill="#333333" transform="translate(729.53125,190.83203125)"/>
<path d="M0 0 C218.46 0 436.92 0 662 0 C662 20.79 662 41.58 662 63 C443.54 63 225.08 63 0 63 C0 42.21 0 21.42 0 0 Z " fill="#343434" transform="translate(415,602)"/>
<path d="M0 0 C176.88 0 353.76 0 536 0 C536 15.84 536 31.68 536 48 C359.12 48 182.24 48 0 48 C0 32.16 0 16.32 0 0 Z " fill="#363636" transform="translate(478,701)"/>
<path d="M0 0 C15.51 0 31.02 0 47 0 C47 171.27 47 342.54 47 519 C31.49 519 15.98 519 0 519 C0 347.73 0 176.46 0 0 Z " fill="#343434" transform="translate(722,796)"/>
</svg>
